<mxfile host="app.diagrams.net" modified="2024-06-22T21:49:44.230Z" agent="Mozilla/5.0 (X11; Linux x86_64; rv:127.0) Gecko/20100101 Firefox/127.0" version="24.6.2" etag="EI8JnJ57LvqhLk3l7Fjy" type="gitlab">
  <diagram name="Page-1" id="1S0xvCnFW97MkZDvRNyR">
    <mxGraphModel>
      <root>
        <mxCell id="0" />
        <mxCell id="1" parent="0" />
      </root>
    </mxGraphModel>
  </diagram>
</mxfile>
